# xmcd
#
# Track frame offsets:
#	150
#	20094
#	38877
#	56660
#	73852
#	86816
#	102055
#	116755
#	136749
#	151042
#	167067
#	179966
#	195151
#	211603
#	228435
#	246210
#	261025
#	278024
#	295158
#	312472
#
# Disc length: 4419 seconds
#
# Revision: 2
# Processed by: cddbd v1.5.2PL0 Copyright (c) Steve Scherf et al.
# Submitted via: audiograbber 1.83.01
#
DISCID=1d114114
DTITLE=Troy Cassar-Daley - Born To Survive - The Best Of
DYEAR=2007
DGENRE=Country
TTITLE0=Born To Survive
TTITLE1=Lonesome But Free
TTITLE2=They Don't Make 'Em Like That Anymore
TTITLE3=Everything's Going To Be Alright
TTITLE4=True Believer 
TTITLE5=Going Back Home
TTITLE6=Wish I Was A Train (with Paul Kelly)
TTITLE7=Bird On A Wire (with Jimmy Barnes)
TTITLE8=Biggest Disappointment (with Slim Dusty)
TTITLE9=Little Things
TTITLE10=River Boy (with Shane Howard)
TTITLE11=Last Mile Home
TTITLE12=Bar Room Roses
TTITLE13=Ladies In My Life
TTITLE14=Make The Most (Of Everyday With You)
TTITLE15=Dream Out Loud
TTITLE16=Ramblin' Man (with Tommy Emmanuel)
TTITLE17=I Wanna Go Back
TTITLE18=Trains
TTITLE19=Walking Away
EXTD=
EXTT0=
EXTT1=
EXTT2=
EXTT3=
EXTT4=
EXTT5=
EXTT6=
EXTT7=
EXTT8=
EXTT9=
EXTT10=
EXTT11=
EXTT12=
EXTT13=
EXTT14=
EXTT15=
EXTT16=
EXTT17=
EXTT18=
EXTT19=
PLAYORDER=
